Coordinates
version=1
nRows=14
nColumns=40
inDegrees=yes

Units are S.I. units (second, meters, Newtons, ...)
If the header above contains a line with 'inDegrees', this indicates whether rotational values are in degrees (yes) or radians (no).

endheader
time	pelvis_tilt	pelvis_list	pelvis_rotation	pelvis_tx	pelvis_ty	pelvis_tz	hip_flexion_r	hip_adduction_r	hip_rotation_r	knee_angle_r	knee_angle_r_beta	ankle_angle_r	subtalar_angle_r	mtp_angle_r	hip_flexion_l	hip_adduction_l	hip_rotation_l	knee_angle_l	knee_angle_l_beta	ankle_angle_l	subtalar_angle_l	mtp_angle_l	lumbar_extension	lumbar_bending	lumbar_rotation	arm_flex_r	arm_add_r	arm_rot_r	elbow_flex_r	pro_sup_r	wrist_flex_r	wrist_dev_r	arm_flex_l	arm_add_l	arm_rot_l	elbow_flex_l	pro_sup_l	wrist_flex_l	wrist_dev_l
      3.35500000	    -32.81094467	     -1.06341673	      8.27383107	     -0.43471861	      0.46595589	     -0.95224910	    119.83136580	    -37.95111424	      6.57546931	    119.65492728	      2.08837245	     36.95825090	      0.00000000	      0.00000000	    116.52798003	    -12.18543791	      4.31407586	    117.26479759	      2.04665681	     34.68490522	      0.00000000	      0.00000000	    -43.66399263	      8.27413978	     -5.88984586	    -29.55354841	    -41.29306963	     13.05541793	     97.20586867	     44.91323026	      0.00000000	      0.00000000	    -21.11956119	    -40.82705853	      6.95193549	     77.11990885	     44.91323026	      0.00000000	      0.00000000
      3.36000000	    -33.01846787	     -0.62411699	      7.39287678	     -0.43370322	      0.46608460	     -0.95034971	    119.83093934	    -36.63460086	      6.66118792	    119.53309556	      2.08624608	     36.97204550	      0.00000000	      0.00000000	    116.50018354	    -13.23021808	      4.40134765	    117.40869762	      2.04916834	     35.05660150	      0.00000000	      0.00000000	    -43.43521791	      7.75003451	     -5.88765818	    -29.53724983	    -41.28811345	     13.05766287	     97.20759766	     44.91403053	      0.00000000	      0.00000000	    -21.14194626	    -40.79457683	      6.95356491	     77.11284828	     44.91403053	      0.00000000	      0.00000000
      3.36500000	    -33.29678556	     -0.42743914	      6.79148475	     -0.43291280	      0.46635300	     -0.94908325	    119.83010521	    -35.72192206	      6.61015260	    119.39334463	      2.08380697	     37.00941862	      0.00000000	      0.00000000	    116.59493715	    -13.85087479	      4.54739259	    117.43668824	      2.04965687	     35.21039219	      0.00000000	      0.00000000	    -42.97210894	      6.74722665	     -5.81172850	    -29.49555265	    -41.27719388	     13.06077629	     97.21770338	     44.91501567	      0.00000000	      0.00000000	    -21.20847213	    -40.71552737	      6.96285940	     77.10409353	     44.91501567	      0.00000000	      0.00000000
      3.37000000	    -33.44035074	     -0.37813796	      6.77567883	     -0.43220320	      0.46699106	     -0.94896970	    119.82693877	    -35.60375665	      6.67765626	    119.32697633	      2.08264862	     37.02689222	      0.00000000	      0.00000000	    116.49931547	    -13.69458610	      4.78675487	    117.48590377	      2.05051585	     35.15274778	      0.00000000	      0.00000000	    -42.94593114	      6.70067792	     -5.79820814	    -29.49088135	    -41.27583813	     13.06140246	     97.21811914	     44.91509611	      0.00000000	      0.00000000	    -21.21435755	    -40.71108857	      6.96312213	     77.10337546	     44.91509611	      0.00000000	      0.00000000
      3.37500000	    -33.62195762	     -0.31247915	      6.76215744	     -0.43140782	      0.46792209	     -0.94890655	    119.82232631	    -35.43098516	      6.77929032	    119.19609762	      2.08036436	     37.05406783	      0.00000000	      0.00000000	    116.40528731	    -13.55771475	      4.90983757	    117.41978682	      2.04936189	     35.16160968	      0.00000000	      0.00000000	    -42.85649761	      6.63217891	     -5.77739775	    -29.48608985	    -41.27369106	     13.06213862	     97.21833952	     44.91519289	      0.00000000	      0.00000000	    -21.22398803	    -40.70268163	      6.96376723	     77.10251101	     44.91519289	      0.00000000	      0.00000000
      3.38000000	    -34.04615157	      0.21620993	      5.57618251	     -0.43083635	      0.46877846	     -0.94617884	    119.82088636	    -33.53075722	      6.77848119	    118.80040684	      2.07345825	     37.13838861	      0.00000000	      0.00000000	    116.50088815	    -14.91247282	      4.95745258	    117.29079208	      2.04711050	     35.19689537	      0.00000000	      0.00000000	    -41.59218777	      4.75091573	     -5.36821137	    -29.35081321	    -41.19500446	     13.09914801	     97.22513827	     44.91745104	      0.00000000	      0.00000000	    -21.43064242	    -40.56377171	      6.97511419	     77.08216300	     44.91745104	      0.00000000	      0.00000000
      3.38500000	    -34.16132806	     -0.07921867	      6.50579570	     -0.43035085	      0.47047648	     -0.94808420	    119.81572300	    -34.63822813	      6.92435148	    118.68637327	      2.07146799	     37.17343243	      0.00000000	      0.00000000	    116.25166676	    -13.52028032	      4.96413366	    116.84354243	      2.03930453	     35.28447122	      0.00000000	      0.00000000	    -41.32204432	      5.14848806	     -5.22001392	    -29.32395441	    -41.15450641	     13.12395095	     97.20719565	     44.91824797	      0.00000000	      0.00000000	    -21.46561515	    -40.55823965	      6.97662161	     77.07489634	     44.91824797	      0.00000000	      0.00000000
      3.39000000	    -34.59195987	      0.48486333	      5.40334339	     -0.42938280	      0.47190368	     -0.94527724	    119.80636287	    -32.80656041	      6.99367142	    118.30467374	      2.06480608	     37.14716377	      0.00000000	      0.00000000	    116.25182631	    -14.88210238	      4.75265301	    116.60814699	      2.03519610	     35.86411788	      0.00000000	      0.00000000	    -40.82626710	      4.67630015	     -5.23387139	    -29.31526692	    -41.10289831	     13.15205617	     97.19071898	     44.91911757	      0.00000000	      0.00000000	    -21.48701569	    -40.54814417	      6.97754556	     77.06691747	     44.91911757	      0.00000000	      0.00000000
      3.39500000	    -35.00885933	      1.06469604	      4.44804337	     -0.42838926	      0.47361774	     -0.94286251	    119.80055869	    -31.18215942	      7.10037919	    117.90249190	      2.05778668	     37.13841693	      0.00000000	      0.00000000	    116.15625584	    -15.99182615	      4.69119314	    116.46599944	      2.03271516	     35.91892843	      0.00000000	      0.00000000	    -39.97453463	      2.87098512	     -5.07233320	    -29.21555708	    -40.97974989	     13.21189668	     97.17760868	     44.92098166	      0.00000000	      0.00000000	    -21.62176370	    -40.53817808	      6.97295731	     77.04962419	     44.92098166	      0.00000000	      0.00000000
      3.40000000	    -35.36211679	      1.17187886	      4.39615777	     -0.42760352	      0.47562410	     -0.94237025	    119.78974493	    -30.81956088	      7.17420454	    117.59533017	      2.05242570	     37.12399532	      0.00000000	      0.00000000	    116.04140230	    -15.85190014	      4.74726246	    116.10600808	      2.02643212	     35.95115162	      0.00000000	      0.00000000	    -39.84208204	      2.81594509	     -5.03850025	    -29.20719964	    -40.96607794	     13.21836542	     97.17443307	     44.92114628	      0.00000000	      0.00000000	    -21.63844386	    -40.53980855	      6.97210838	     77.04808450	     44.92114628	      0.00000000	      0.00000000
      3.40500000	    -35.71968008	      1.38479355	      4.31450723	     -0.42665104	      0.47806113	     -0.94193985	    119.77699271	    -30.41820267	      7.33028401	    117.22681159	      2.04599383	     37.09790139	      0.00000000	      0.00000000	    115.82828526	    -15.79900331	      4.68268012	    115.71434904	      2.01959638	     35.98272129	      0.00000000	      0.00000000	    -39.60560491	      2.70409937	     -5.00619124	    -29.20112205	    -40.95236906	     13.22360381	     97.17145689	     44.92129645	      0.00000000	      0.00000000	    -21.65881338	    -40.53754938	      6.97145037	     77.04667823	     44.92129645	      0.00000000	      0.00000000
      3.41000000	    -36.32411139	      2.05574408	      3.24943628	     -0.42609080	      0.48055298	     -0.93940749	    119.75691594	    -28.57481386	      7.39587382	    116.48384743	      2.03302666	     37.21916780	      0.00000000	      0.00000000	    115.74807503	    -16.94960440	      4.72324296	    115.50179054	      2.01588654	     35.84208428	      0.00000000	      0.00000000	    -37.75581507	      0.78558194	     -4.76467275	    -29.08825334	    -40.76556783	     13.29395544	     97.14271366	     44.92313102	      0.00000000	      0.00000000	    -21.85608786	    -40.58022588	      6.95374663	     77.02935184	     44.92313102	      0.00000000	      0.00000000
      3.41500000	    -36.68869117	      2.08754584	      3.40721056	     -0.42535749	      0.48357574	     -0.93934340	    119.74434227	    -28.43637234	      7.57191600	    116.15017165	      2.02720292	     37.10900510	      0.00000000	      0.00000000	    115.57085285	    -16.57680981	      4.49268739	    114.81209829	      2.00384914	     35.98823861	      0.00000000	      0.00000000	    -37.64169059	      0.77163462	     -4.72955265	    -29.07836603	    -40.75071364	     13.29999374	     97.13786971	     44.92327293	      0.00000000	      0.00000000	    -21.87161519	    -40.58774582	      6.95182230	     77.02800084	     44.92327293	      0.00000000	      0.00000000
      3.42000000	    -36.92686240	      2.40834476	      3.86075334	     -0.42409983	      0.48729016	     -0.94011251	    119.71778096	    -28.66722525	      8.07706410	    115.72864220	      2.01984585	     36.91074619	      0.00000000	      0.00000000	    114.89204904	    -15.84336796	      4.20542274	    114.33789771	      1.99557277	     36.08568564	      0.00000000	      0.00000000	    -36.75782883	      0.53980315	     -4.71029393	    -29.04846371	    -40.64197066	     13.34000167	     97.09916463	     44.92412610	      0.00000000	      0.00000000	    -21.91097077	    -40.64918447	      6.93975453	     77.01984570	     44.92412610	      0.00000000	      0.00000000
